<?xml version="1.0" encoding="UTF-8" standalone="no"?>
<!DOCTYPE svg PUBLIC "-//W3C//DTD SVG 1.1//EN" "http://www.w3.org/Graphics/SVG/1.1/DTD/svg11.dtd">
<svg width="100%" height="100%" viewBox="0 0 84 31" version="1.1" xmlns="http://www.w3.org/2000/svg" xmlns:xlink="http://www.w3.org/1999/xlink" xml:space="preserve" xmlns:serif="http://www.serif.com/" style="fill-rule:evenodd;clip-rule:evenodd;stroke-linejoin:round;stroke-miterlimit:2;">
    <g>
        <path d="M7.577,24.14C6.106,24.14 4.795,23.817 3.644,23.171C2.493,22.526 1.598,21.626 0.958,20.471C0.319,19.317 0,17.988 0,16.484C0,14.642 0.496,12.948 1.487,11.402C2.479,9.856 3.826,8.634 5.531,7.733C7.236,6.834 9.111,6.384 11.158,6.384C12.565,6.384 13.822,6.611 14.931,7.067C16.039,7.522 16.902,8.162 17.521,8.989C18.139,9.815 18.448,10.746 18.448,11.784C18.448,12.885 18.129,13.79 17.489,14.499C16.85,15.209 16.028,15.563 15.027,15.563C14.195,15.563 13.513,15.32 12.981,14.832C12.475,14.369 12.209,13.792 12.184,13.099C12.174,12.822 12.25,12.378 12.335,12.114C12.397,11.919 12.464,11.735 12.534,11.561C12.769,11.053 12.885,10.618 12.885,10.258C12.885,9.75 12.72,9.342 12.39,9.036C12.059,8.729 11.627,8.575 11.094,8.575C10.369,8.575 9.693,8.856 9.064,9.416C8.435,9.978 7.939,10.734 7.577,11.687C7.214,12.641 7.034,13.678 7.034,14.8C7.034,16.473 7.443,17.834 8.264,18.881C9.085,19.93 10.135,20.454 11.414,20.454C12.096,20.454 12.837,20.295 13.636,19.978C14.289,19.718 14.866,19.402 15.371,19.03C15.564,18.887 15.834,18.905 16.005,19.076C16.167,19.237 16.195,19.488 16.072,19.68C15.285,20.927 14.142,21.963 12.645,22.789C11.014,23.69 9.325,24.14 7.577,24.14Z" style="fill-rule:nonzero;"/>
        <path d="M20.967,31C19.453,31 18.265,30.703 17.402,30.11C16.538,29.517 16.107,28.702 16.107,27.664C16.107,26.817 16.374,26.129 16.906,25.6C17.438,25.07 18.121,24.805 18.952,24.805C19.932,24.805 20.934,25.197 21.957,25.981C22.831,26.658 23.704,26.997 24.579,26.997C25.538,26.997 26.613,26.606 27.808,25.822C28.669,25.256 29.492,24.547 30.276,23.694C30.483,23.469 30.238,23.124 29.955,23.244C28.541,23.84 27.026,24.138 25.409,24.138C23.3,24.138 21.664,23.598 20.502,22.518C19.34,21.438 18.759,19.924 18.759,17.976C18.759,15.689 19.537,13.191 21.093,10.48L21.157,10.353L20.742,10.353C19.86,10.353 19.143,9.642 19.143,8.765C19.143,7.889 19.86,7.177 20.742,7.177L29.744,7.177C29.963,7.177 30.1,7.412 29.99,7.601L28.702,9.814C27.615,11.678 26.831,13.239 26.352,14.499C25.873,15.759 25.633,16.887 25.633,17.882C25.633,18.983 25.9,19.841 26.432,20.455C26.964,21.069 27.7,21.376 28.638,21.376C29.576,21.376 30.477,21.085 31.339,20.503C32.203,19.921 32.895,19.148 33.417,18.184C33.939,17.221 34.2,16.209 34.2,15.15C34.2,14.431 34.067,13.838 33.8,13.372C33.534,12.907 33.092,12.493 32.474,12.133C31.152,11.37 30.492,10.354 30.492,9.084C30.492,8.257 30.753,7.602 31.275,7.115C31.798,6.628 32.495,6.385 33.369,6.385C34.563,6.385 35.475,6.893 36.103,7.909C36.73,8.926 37.045,10.398 37.045,12.324C37.045,15.459 36.283,18.465 34.76,21.345C33.235,24.224 31.227,26.554 28.733,28.333C26.241,30.111 23.652,31 20.967,31Z" style="fill-rule:nonzero;"/>
        <path d="M45.488,24.14C44.018,24.14 42.707,23.817 41.556,23.171C40.404,22.526 39.51,21.626 38.87,20.471C38.231,19.318 37.91,17.989 37.91,16.485C37.91,14.643 38.406,12.949 39.398,11.403C40.389,9.857 41.736,8.635 43.442,7.734C45.147,6.835 47.022,6.385 49.069,6.385C50.475,6.385 51.732,6.612 52.841,7.068C53.95,7.523 54.812,8.163 55.431,8.99C56.049,9.816 56.359,10.747 56.359,11.785C56.359,12.886 56.039,13.791 55.399,14.5C54.76,15.21 53.939,15.564 52.937,15.564C52.106,15.564 51.424,15.321 50.892,14.833C50.385,14.37 50.119,13.793 50.094,13.1C50.084,12.823 50.16,12.379 50.245,12.115C50.308,11.92 50.374,11.736 50.444,11.562C50.679,11.054 50.796,10.619 50.796,10.259C50.796,9.751 50.631,9.343 50.3,9.037C49.97,8.73 49.538,8.576 49.005,8.576C48.28,8.576 47.603,8.857 46.974,9.417C46.345,9.979 45.85,10.735 45.487,11.688C45.125,12.642 44.944,13.679 44.944,14.801C44.944,16.474 45.354,17.835 46.175,18.882C46.995,19.931 48.045,20.455 49.324,20.455C50.006,20.455 50.747,20.296 51.546,19.979C52.255,19.696 52.877,19.348 53.41,18.934C53.524,18.844 53.686,18.85 53.79,18.952L54.029,19.19C54.12,19.281 54.14,19.423 54.074,19.532C53.284,20.845 52.112,21.931 50.556,22.789C48.924,23.69 47.235,24.14 45.488,24.14Z" style="fill-rule:nonzero;"/>
        <path d="M60.163,24.14C58.799,24.14 57.743,23.791 56.998,23.092C56.252,22.393 55.878,21.397 55.878,20.106C55.878,19.449 55.995,18.73 56.23,17.946L59.834,4.472C59.94,4.076 59.853,3.653 59.599,3.331L58.632,2.109C57.956,1.254 58.57,0 59.665,0L67.304,0C67.491,0 67.627,0.176 67.579,0.356L62.624,18.74C62.517,19.206 62.464,19.565 62.464,19.82C62.464,20.265 62.554,20.604 62.736,20.837C62.917,21.07 63.178,21.186 63.519,21.186C63.745,21.186 63.966,21.138 64.18,21.04C64.302,20.984 64.447,21.015 64.528,21.123L64.783,21.455C64.85,21.543 64.862,21.663 64.808,21.76C64.404,22.487 63.813,23.059 63.039,23.474C62.208,23.918 61.249,24.14 60.163,24.14Z" style="fill-rule:nonzero;"/>
        <path d="M73.257,24.14C70.784,24.14 68.834,23.479 67.407,22.155C65.979,20.831 65.265,19.026 65.265,16.739C65.265,14.791 65.793,13.029 66.848,11.451C67.903,9.874 69.363,8.635 71.228,7.734C73.093,6.835 75.176,6.385 77.479,6.385C79.567,6.385 81.177,6.777 82.306,7.56C83.435,8.344 84,9.456 84,10.895C84,12.759 83.046,14.145 81.139,15.056C79.284,15.941 76.476,16.397 72.716,16.421C72.542,16.422 72.41,16.576 72.435,16.747C72.6,17.882 73.018,18.768 73.691,19.408C74.426,20.107 75.423,20.456 76.681,20.456C77.491,20.456 78.268,20.303 79.015,19.995C79.706,19.712 80.461,19.25 81.278,18.612C81.391,18.523 81.554,18.531 81.656,18.633L81.899,18.875C81.99,18.964 82.009,19.103 81.947,19.214C81.043,20.794 79.875,22.002 78.439,22.837C76.944,23.705 75.218,24.14 73.257,24.14ZM72.398,14.292C72.376,14.461 72.514,14.611 72.684,14.607C74.38,14.569 75.673,14.226 76.565,13.579C77.514,12.89 77.989,11.89 77.989,10.577C77.989,9.242 77.509,8.576 76.55,8.576C75.911,8.576 75.288,8.852 74.679,9.402C74.072,9.953 73.56,10.688 73.145,11.61C72.771,12.439 72.522,13.333 72.398,14.292Z" style="fill-rule:nonzero;"/>
        <path d="M7.577,24.14C6.106,24.14 4.795,23.817 3.644,23.171C2.493,22.526 1.598,21.626 0.958,20.471C0.319,19.317 0,17.988 0,16.484C0,14.642 0.496,12.948 1.487,11.402C2.479,9.856 3.826,8.634 5.531,7.733C7.236,6.834 9.111,6.384 11.158,6.384C12.565,6.384 13.822,6.611 14.931,7.067C16.039,7.522 16.902,8.162 17.521,8.989C18.139,9.815 18.448,10.746 18.448,11.784C18.448,12.885 18.129,13.79 17.489,14.499C16.85,15.209 16.028,15.563 15.027,15.563C14.195,15.563 13.513,15.32 12.981,14.832C12.475,14.369 12.209,13.792 12.184,13.099C12.174,12.822 12.25,12.378 12.335,12.114C12.397,11.919 12.464,11.735 12.534,11.561C12.769,11.053 12.885,10.618 12.885,10.258C12.885,9.75 12.72,9.342 12.39,9.036C12.059,8.729 11.627,8.575 11.094,8.575C10.369,8.575 9.693,8.856 9.064,9.416C8.435,9.978 7.939,10.734 7.577,11.687C7.214,12.641 7.034,13.678 7.034,14.8C7.034,16.473 7.443,17.834 8.264,18.881C9.085,19.93 10.135,20.454 11.414,20.454C12.096,20.454 12.837,20.295 13.636,19.978C14.289,19.718 14.866,19.402 15.371,19.03C15.564,18.887 15.834,18.905 16.005,19.076C16.167,19.237 16.195,19.488 16.072,19.68C15.285,20.927 14.142,21.963 12.645,22.789C11.014,23.69 9.325,24.14 7.577,24.14Z" style="fill-rule:nonzero;"/>
        <path d="M20.967,31C19.453,31 18.265,30.703 17.402,30.11C16.538,29.517 16.107,28.702 16.107,27.664C16.107,26.817 16.374,26.129 16.906,25.6C17.438,25.07 18.121,24.805 18.952,24.805C19.932,24.805 20.934,25.197 21.957,25.981C22.831,26.658 23.704,26.997 24.579,26.997C25.538,26.997 26.613,26.606 27.808,25.822C28.669,25.256 29.492,24.547 30.276,23.694C30.483,23.469 30.238,23.124 29.955,23.244C28.541,23.84 27.026,24.138 25.409,24.138C23.3,24.138 21.664,23.598 20.502,22.518C19.34,21.438 18.759,19.924 18.759,17.976C18.759,15.689 19.537,13.191 21.093,10.48L21.157,10.353L20.742,10.353C19.86,10.353 19.143,9.642 19.143,8.765C19.143,7.889 19.86,7.177 20.742,7.177L29.744,7.177C29.963,7.177 30.1,7.412 29.99,7.601L28.702,9.814C27.615,11.678 26.831,13.239 26.352,14.499C25.873,15.759 25.633,16.887 25.633,17.882C25.633,18.983 25.9,19.841 26.432,20.455C26.964,21.069 27.7,21.376 28.638,21.376C29.576,21.376 30.477,21.085 31.339,20.503C32.203,19.921 32.895,19.148 33.417,18.184C33.939,17.221 34.2,16.209 34.2,15.15C34.2,14.431 34.067,13.838 33.8,13.372C33.534,12.907 33.092,12.493 32.474,12.133C31.152,11.37 30.492,10.354 30.492,9.084C30.492,8.257 30.753,7.602 31.275,7.115C31.798,6.628 32.495,6.385 33.369,6.385C34.563,6.385 35.475,6.893 36.103,7.909C36.73,8.926 37.045,10.398 37.045,12.324C37.045,15.459 36.283,18.465 34.76,21.345C33.235,24.224 31.227,26.554 28.733,28.333C26.241,30.111 23.652,31 20.967,31Z" style="fill-rule:nonzero;"/>
        <path d="M45.488,24.14C44.018,24.14 42.707,23.817 41.556,23.171C40.404,22.526 39.51,21.626 38.87,20.471C38.231,19.318 37.91,17.989 37.91,16.485C37.91,14.643 38.406,12.949 39.398,11.403C40.389,9.857 41.736,8.635 43.442,7.734C45.147,6.835 47.022,6.385 49.069,6.385C50.475,6.385 51.732,6.612 52.841,7.068C53.95,7.523 54.812,8.163 55.431,8.99C56.049,9.816 56.359,10.747 56.359,11.785C56.359,12.886 56.039,13.791 55.399,14.5C54.76,15.21 53.939,15.564 52.937,15.564C52.106,15.564 51.424,15.321 50.892,14.833C50.385,14.37 50.119,13.793 50.094,13.1C50.084,12.823 50.16,12.379 50.245,12.115C50.308,11.92 50.374,11.736 50.444,11.562C50.679,11.054 50.796,10.619 50.796,10.259C50.796,9.751 50.631,9.343 50.3,9.037C49.97,8.73 49.538,8.576 49.005,8.576C48.28,8.576 47.603,8.857 46.974,9.417C46.345,9.979 45.85,10.735 45.487,11.688C45.125,12.642 44.944,13.679 44.944,14.801C44.944,16.474 45.354,17.835 46.175,18.882C46.995,19.931 48.045,20.455 49.324,20.455C50.006,20.455 50.747,20.296 51.546,19.979C52.255,19.696 52.877,19.348 53.41,18.934C53.524,18.844 53.686,18.85 53.79,18.952L54.029,19.19C54.12,19.281 54.14,19.423 54.074,19.532C53.284,20.845 52.112,21.931 50.556,22.789C48.924,23.69 47.235,24.14 45.488,24.14Z" style="fill-rule:nonzero;"/>
        <path d="M60.163,24.14C58.799,24.14 57.743,23.791 56.998,23.092C56.252,22.393 55.878,21.397 55.878,20.106C55.878,19.449 55.995,18.73 56.23,17.946L59.834,4.472C59.94,4.076 59.853,3.653 59.599,3.331L58.632,2.109C57.956,1.254 58.57,0 59.665,0L67.304,0C67.491,0 67.627,0.176 67.579,0.356L62.624,18.74C62.517,19.206 62.464,19.565 62.464,19.82C62.464,20.265 62.554,20.604 62.736,20.837C62.917,21.07 63.178,21.186 63.519,21.186C63.745,21.186 63.966,21.138 64.18,21.04C64.302,20.984 64.447,21.015 64.528,21.123L64.783,21.455C64.85,21.543 64.862,21.663 64.808,21.76C64.404,22.487 63.813,23.059 63.039,23.474C62.208,23.918 61.249,24.14 60.163,24.14Z" style="fill-rule:nonzero;"/>
        <path d="M73.257,24.14C70.784,24.14 68.834,23.479 67.407,22.155C65.979,20.831 65.265,19.026 65.265,16.739C65.265,14.791 65.793,13.029 66.848,11.451C67.903,9.874 69.363,8.635 71.228,7.734C73.093,6.835 75.176,6.385 77.479,6.385C79.567,6.385 81.177,6.777 82.306,7.56C83.435,8.344 84,9.456 84,10.895C84,12.759 83.046,14.145 81.139,15.056C79.284,15.941 76.476,16.397 72.716,16.421C72.542,16.422 72.41,16.576 72.435,16.747C72.6,17.882 73.018,18.768 73.691,19.408C74.426,20.107 75.423,20.456 76.681,20.456C77.491,20.456 78.268,20.303 79.015,19.995C79.706,19.712 80.461,19.25 81.278,18.612C81.391,18.523 81.554,18.531 81.656,18.633L81.899,18.875C81.99,18.964 82.009,19.103 81.947,19.214C81.043,20.794 79.875,22.002 78.439,22.837C76.944,23.705 75.218,24.14 73.257,24.14ZM72.398,14.292C72.376,14.461 72.514,14.611 72.684,14.607C74.38,14.569 75.673,14.226 76.565,13.579C77.514,12.89 77.989,11.89 77.989,10.577C77.989,9.242 77.509,8.576 76.55,8.576C75.911,8.576 75.288,8.852 74.679,9.402C74.072,9.953 73.56,10.688 73.145,11.61C72.771,12.439 72.522,13.333 72.398,14.292Z" style="fill-rule:nonzero;"/>
    </g>
</svg>
